HIERARCHY
ROOT Hips
{
	OFFSET 0.00000 0.00000 0.00000
	CHANNELS 6 Xposition Yposition Zposition Zrotation Yrotation Xrotation 
	JOINT LHipJoint
	{
		OFFSET 0 0 0
		CHANNELS 3 Zrotation Yrotation Xrotation
		JOINT LeftHip
		{
			OFFSET 1.38280 -1.96574 0.54427
			CHANNELS 3 Zrotation Yrotation Xrotation
			JOINT LeftKnee
			{
				OFFSET 2.72096 -7.47578 0.00000
				CHANNELS 3 Zrotation Yrotation Xrotation
				JOINT LeftAnkle
				{
					OFFSET 2.73041 -7.50176 0.00000
					CHANNELS 3 Zrotation Yrotation Xrotation
					JOINT LeftToe
					{
						OFFSET 0.16150 -0.44371 2.18031
						CHANNELS 3 Zrotation Yrotation Xrotation
						End Site
						{
							OFFSET 0.00000 -0.00000 1.12127
						}
					}
				}
			}
		}
	}
	JOINT RHipJoint
	{
		OFFSET 0 0 0
		CHANNELS 3 Zrotation Yrotation Xrotation
		JOINT RightHip
		{
			OFFSET -1.57224 -1.96575 0.54427
			CHANNELS 3 Zrotation Yrotation Xrotation
			JOINT RightKnee
			{
				OFFSET -2.95935 -8.13076 0.00000
				CHANNELS 3 Zrotation Yrotation Xrotation
				JOINT RightAnkle
				{
					OFFSET -2.52345 -6.93311 0.00000
					CHANNELS 3 Zrotation Yrotation Xrotation
					JOINT RightToe
					{
						OFFSET -0.04475 -0.10171 1.86688
						CHANNELS 3 Zrotation Yrotation Xrotation
						End Site
						{
							OFFSET -0.00000 -0.00000 0.95157
						}
					}
				}
			}
		}
	}
	JOINT lowerback
	{
		OFFSET 0 0 0
		CHANNELS 3 Zrotation Yrotation Xrotation
		JOINT Chest
		{
			OFFSET 0.00669 2.07367 0.09104
			CHANNELS 3 Zrotation Yrotation Xrotation
			JOINT Chest2
			{
				OFFSET -0.00664 2.06198 -0.04732
				CHANNELS 3 Zrotation Yrotation Xrotation
				JOINT lowerneck
				{
					OFFSET 0 0 0
					CHANNELS 3 Zrotation Yrotation Xrotation
					JOINT Neck
					{
						OFFSET -0.00021 1.49948 0.16345
						CHANNELS 3 Zrotation Yrotation Xrotation
						JOINT Head
						{
							OFFSET 0.06080 1.50567 -0.26702
							CHANNELS 3 Zrotation Yrotation Xrotation
							End Site
							{
								OFFSET 0.01726 1.56470 -0.11854
							}
						}
					}
				}
				JOINT LeftCollar
				{
					OFFSET 0 0 0
					CHANNELS 3 Zrotation Yrotation Xrotation
					JOINT LeftShoulder
					{
						OFFSET 3.14993 0.82932 -0.22488
CHANNELS 3 Zrotation Xrotation Yrotation
						JOINT LeftElbow
						{
OFFSET 0 -5.682360 -0.000000
CHANNELS 3 Zrotation Xrotation Yrotation
							JOINT LeftWrist
							{
OFFSET 0 -3.171120 0.000000
CHANNELS 3 Zrotation Xrotation Yrotation
								JOINT lhand
								{
									OFFSET 0 0 0
CHANNELS 3 Zrotation Xrotation Yrotation
									JOINT LFingers
									{
OFFSET 0 -0.632690 0.000000
CHANNELS 3 Zrotation Xrotation Yrotation
										End Site
										{
OFFSET 0 -0.510090 0.000000
										}
									}
								}
								JOINT LThumb
								{
OFFSET 0 0.000000 0.000000
CHANNELS 3 Zrotation Xrotation Yrotation
									End Site
									{
OFFSET 0 -0.517880 0.517880
									}
								}
							}
						}
					}
				}
				JOINT RightCollar
				{
					OFFSET 0 0 0
					CHANNELS 3 Zrotation Yrotation Xrotation
					JOINT RightShoulder
					{
						OFFSET -3.10571 0.91279 -0.33334
CHANNELS 3 Zrotation Xrotation Yrotation
						JOINT RightElbow
						{
OFFSET 0 -5.871200 -0.000000
CHANNELS 3 Zrotation Xrotation Yrotation
							JOINT RightWrist
							{
OFFSET 0 -3.375890 0.000000
CHANNELS 3 Zrotation Xrotation Yrotation
								JOINT rhand
								{
									OFFSET 0 0 0
CHANNELS 3 Zrotation Xrotation Yrotation
									JOINT RFingers
									{
OFFSET 0 -0.603260 0.000000
CHANNELS 3 Zrotation Xrotation Yrotation
										End Site
										{
OFFSET 0 -0.486360 0.000000
										}
									}
								}
								JOINT RThumb
								{
OFFSET 0 0.000000 0.000000
CHANNELS 3 Zrotation Xrotation Yrotation
									End Site
									{
OFFSET 0 -0.493790 0.493790
									}
								}
							}
						}
					}
				}
			}
		}
	}
}
MOTION
Frames: 9
Frame Time: 0.008333333333333333
-8.138633 14.606200 -3.627648 0.195185 244.676952 79.684258 0.000000 0.000000 0.000000 -7.441377 -3.531269 -130.172970 12.580084 18.625251 67.816101 0.548645 -5.094797 -13.187770 0.482252 -4.453114 -12.355118 0.000000 0.000000 0.000000 2.024210 0.684107 -125.016679 -10.821343 -17.846473 62.200026 -0.303117 5.710827 14.062077 -5.141900 -13.541858 41.432256 0.509703 -0.184773 16.194285 -0.292945 -1.573410 15.136005 -0.499089 -1.125970 7.257598 -1.757338 0.884675 -61.748425 3.207726 -0.893559 7.453315 1.303126 -0.794304 9.616090 0.000000 0.000000 0.000000 138.201718 -37.456976 81.630593 31.749413 -42.336389 12.575323 -10.940246 -79.462099 -40.751746 0.000000 0.000000 0.000000 -7.125000 0.000000 0.000000 -55.889769 61.900260 27.430935 0.000000 0.000000 0.000000 -95.225973 -41.846675 -11.991013 -83.821927 -59.855267 -54.652270 -42.685982 -42.414460 -32.341126 0.000000 0.000000 0.000000 7.125000 0.000000 0.000000 -5.812159 -10.575513 -6.812009
-8.260291 14.306179 -3.543154 -3.523187 241.641110 83.388580 0.000000 0.000000 0.000000 -15.557004 -5.407324 -133.141141 13.859444 19.070840 71.774819 0.280918 -9.091401 -10.628164 0.276496 -3.379415 -9.337162 0.000000 0.000000 0.000000 0.126682 -2.154543 -127.746547 -11.769764 -18.291605 65.257189 -0.396144 6.016960 15.613108 -5.098632 -13.493972 41.246898 -1.012269 -5.148019 14.972655 -10.563562 -8.778350 19.173484 -10.863755 -4.075752 11.411755 20.484675 21.069710 -62.846006 -0.652250 5.926638 8.025955 -1.621793 1.877488 9.961830 0.000000 0.000000 0.000000 141.635458 1.520634 80.232274 28.914973 -39.936415 10.709351 10.746138 -76.967519 -35.478343 0.000000 0.000000 0.000000 -7.125000 0.000000 0.000000 -28.230619 63.764554 13.362729 0.000000 0.000000 0.000000 -89.608882 -62.930687 -28.019479 -72.150101 -58.759798 -44.606037 -43.589625 -41.889248 -31.039721 0.000000 0.000000 0.000000 7.125000 0.000000 0.000000 -6.662903 -9.504653 -7.719654
-8.330664 14.533646 -3.487399 -3.424549 242.752454 82.840414 0.000000 0.000000 0.000000 -15.894848 -6.144695 -131.518100 13.127397 18.827577 69.520613 0.262427 -8.290864 -10.089936 0.477992 -4.431254 -12.293629 0.000000 0.000000 0.000000 0.177619 -2.116788 -125.252469 -11.020126 -17.944902 62.846864 -0.338693 5.272429 14.201274 -5.277787 -13.689926 42.009448 -0.245874 -5.269337 13.474122 -10.204810 -8.738407 18.890278 -11.055206 -3.963172 11.849196 18.631189 19.506511 -62.037894 1.694001 5.352727 8.998194 -0.455489 2.167986 10.277846 0.000000 0.000000 0.000000 132.624291 -7.664818 69.697446 40.630022 -48.438742 18.909312 7.017688 -72.339742 -37.052310 0.000000 0.000000 0.000000 -7.125000 0.000000 0.000000 -33.990097 64.075612 16.633738 0.000000 0.000000 0.000000 -99.603848 -73.071963 -43.938887 -55.911713 -55.118251 -30.962558 -44.229810 -45.879421 -31.038952 0.000000 0.000000 0.000000 7.125000 0.000000 0.000000 -7.006431 -9.780137 -8.150711
-8.296717 14.851426 -3.486873 -1.434869 244.784038 80.496763 0.000000 0.000000 0.000000 -15.394091 -5.822788 -129.246322 11.702904 18.262175 65.043842 0.184056 -7.630833 -8.701497 0.672695 -5.244633 -14.607485 0.000000 0.000000 0.000000 -0.947945 -1.019415 -121.598531 -10.066827 -17.447280 59.711450 -0.285489 4.035261 12.400694 -4.726616 -13.069108 39.627803 0.609205 -4.064093 12.793048 -7.973900 -6.754485 17.444454 -8.971971 -3.088045 10.941722 18.063147 15.829756 -57.576009 -0.193167 3.688303 6.155776 -1.736837 1.028585 8.901827 0.000000 0.000000 0.000000 127.480243 -28.239390 58.581472 37.923743 -46.790527 16.910022 10.272431 -54.776368 -36.899368 0.000000 0.000000 0.000000 -7.125000 0.000000 0.000000 -30.409517 64.842132 15.249102 0.000000 0.000000 0.000000 -96.235535 -74.290390 -37.244267 -62.791431 -57.009018 -36.673286 -43.247723 -47.563576 -31.099171 0.000000 0.000000 0.000000 7.125000 0.000000 0.000000 -6.462458 -9.426494 -7.477513
-8.154684 14.961072 -3.592506 -0.499251 244.386083 78.940190 0.000000 0.000000 0.000000 -13.567011 -4.804559 -127.467406 11.116131 17.991422 63.158108 0.274186 -5.745618 -9.549336 0.755134 -5.549842 -15.483837 0.000000 0.000000 0.000000 -2.189445 0.413475 -119.722785 -9.480725 -17.107355 57.738344 -0.173381 5.264986 11.535793 -4.764637 -13.113744 39.795964 0.345249 -3.731212 12.349257 -8.019849 -6.340976 17.432085 -8.963453 -2.908673 11.266528 21.588301 17.150982 -54.798642 -3.875922 4.385094 2.826945 -3.658635 0.503750 7.547198 0.000000 0.000000 0.000000 122.263265 -38.882754 44.351506 36.736918 -46.013307 16.050434 8.101652 -20.639875 -31.361472 0.000000 0.000000 0.000000 -7.125000 0.000000 0.000000 -26.925223 59.519475 9.987856 0.000000 0.000000 0.000000 -112.397316 -79.176513 -53.489400 -64.741181 -57.446389 -38.312841 -46.444609 -52.780321 -32.072165 0.000000 0.000000 0.000000 7.125000 0.000000 0.000000 -7.877007 -11.952758 -9.417038
-7.960508 14.940039 -3.820288 -0.994221 243.538225 79.088466 0.000000 0.000000 0.000000 -13.515369 -3.798394 -127.052474 10.930530 17.900946 62.555733 0.276652 -4.973583 -9.460067 0.962084 -6.245330 -17.498015 0.000000 0.000000 0.000000 -1.857134 1.291422 -120.808208 -9.816465 -17.305376 58.873236 -0.213138 5.488261 12.447380 -4.727807 -13.070501 39.633112 0.638322 -3.753518 12.629522 -8.060039 -6.439818 17.766923 -9.190442 -2.919214 11.480872 22.249781 17.813922 -55.431881 -4.799471 4.510608 2.108693 -4.114638 0.267889 7.316640 0.000000 0.000000 0.000000 121.529964 -44.689154 42.397397 33.008394 -43.336356 13.427899 12.650421 -11.563026 -31.012475 0.000000 0.000000 0.000000 -7.125000 0.000000 0.000000 -21.939328 60.260215 8.405166 0.000000 0.000000 0.000000 -137.872578 -80.263377 -78.306654 -65.374012 -57.579750 -38.846565 -44.724889 -52.187244 -31.602329 0.000000 0.000000 0.000000 7.125000 0.000000 0.000000 -7.108394 -10.633651 -8.356441
-7.768069 14.886434 -4.060611 -0.990330 243.066230 79.065436 0.000000 0.000000 0.000000 -12.892923 -2.617612 -127.026669 10.776428 17.823905 62.053240 0.279375 -3.942363 -9.407025 0.795097 -5.691439 -15.891873 0.000000 0.000000 0.000000 0.109229 2.394161 -122.499260 -10.226706 -17.535386 60.243523 -0.349641 5.354497 14.425798 -4.732425 -13.075923 39.653383 1.799909 -2.099034 13.679346 -4.535314 -4.054777 16.562627 -5.806181 -1.921868 9.933746 9.672727 8.025120 -56.388439 -1.093865 0.656231 2.214621 -1.746081 -0.869458 7.262073 0.000000 0.000000 0.000000 120.878249 -54.566999 50.630327 29.911903 -40.817637 11.352047 15.374166 -8.684002 -32.277155 0.000000 0.000000 0.000000 -7.125000 0.000000 0.000000 -20.084242 62.092731 8.534282 0.000000 0.000000 0.000000 -117.065474 -73.994188 -50.979245 -64.031217 -57.291767 -37.714867 -45.474615 -52.886211 -31.182738 0.000000 0.000000 0.000000 7.125000 0.000000 0.000000 -7.629514 -10.497624 -8.964187
-7.629129 14.913103 -4.235494 -0.863658 242.104611 78.513304 0.000000 0.000000 0.000000 -12.448872 -1.594310 -125.982206 10.504370 17.683892 61.161144 0.319436 -2.926413 -10.068554 0.755229 -5.550126 -15.484552 0.000000 0.000000 0.000000 1.894619 3.363223 -123.135797 -10.215188 -17.529078 60.205124 -0.575417 4.287854 16.534443 -4.512943 -12.813378 38.673858 1.717289 -0.729180 14.082629 -1.844070 -2.314278 16.088042 -2.886915 -1.284219 9.421774 0.216237 1.151443 -54.129681 1.465683 -1.595222 0.794030 0.157776 -1.621980 6.666656 0.000000 0.000000 0.000000 120.984112 -58.941368 57.826956 28.829979 -39.869199 10.651569 18.392704 -7.028290 -31.819837 0.000000 0.000000 0.000000 -7.125000 0.000000 0.000000 -16.371747 62.426596 7.034821 0.000000 0.000000 0.000000 -106.543535 -66.126605 -39.208393 -64.713070 -57.440255 -38.289042 -44.993406 -52.065160 -32.377697 0.000000 0.000000 0.000000 7.125000 0.000000 0.000000 -7.021996 -11.623290 -8.348956
-7.617386 14.997558 -4.208524 0.324624 241.747342 77.122021 0.000000 0.000000 0.000000 -10.754948 -0.998052 -124.760963 10.322886 17.587477 60.562180 0.396895 -1.929849 -11.388224 0.783204 -5.649487 -15.770728 0.000000 0.000000 0.000000 3.487685 4.045341 -122.350361 -9.643901 -17.204650 58.291492 -0.773639 3.339532 18.151760 -4.541310 -12.847786 38.801461 0.946384 1.833551 13.641437 3.057841 0.568430 16.180632 2.664518 -0.366344 9.896501 -14.823204 -7.480672 -48.724387 5.347718 -3.985159 -0.570188 3.360111 -2.270416 6.069323 0.000000 0.000000 0.000000 122.433979 -60.608297 62.558310 27.120781 -38.294088 9.573846 18.239900 -3.877355 -30.218457 0.000000 0.000000 0.000000 -7.125000 0.000000 0.000000 -15.334379 60.845393 6.002668 0.000000 0.000000 0.000000 -103.644246 -46.413046 -36.278850 -66.823333 -57.869573 -40.072025 -48.131858 -54.800736 -32.383915 0.000000 0.000000 0.000000 7.125000 0.000000 0.000000 -8.662012 -13.126087 -10.508535
